<?xml version="1.0" encoding="utf-8"?>
<!-- Generator: Adobe Illustrator 15.0.0, SVG Export Plug-In . SVG Version: 6.00 Build 0)  -->
<!DOCTYPE svg PUBLIC "-//W3C//DTD SVG 1.1//EN" "http://www.w3.org/Graphics/SVG/1.1/DTD/svg11.dtd">
<svg version="1.1" id="Layer_1" xmlns="http://www.w3.org/2000/svg" xmlns:xlink="http://www.w3.org/1999/xlink" x="0px" y="0px"
width="314.503px" height="314.257px" viewBox="0 0 314.503 314.257" enable-background="new 0 0 314.503 314.257"
	 xml:space="preserve">
<g>
	<path fill="#FF00FF" d="M156.357,331.857"/>
	<path fill="#00FF00" d="M156.357,17.254"/>
	<path fill="#00FF00" d="M156.357,314.969"/>
	<path fill="#FF00FF" d="M172.646,17.254"/>
	<path fill="#FF00FF" d="M172.646,314.969"/>
	<path fill="#00FF00" d="M172.646,33.543"/>
	<path fill="#00FF00" d="M172.646,331.257"/>
	<path fill="#FF00FF" d="M156.357,331.833"/>
	<path fill="#FFFFFF" d="M165.564,25.753"/>
	<path fill="#FFFFFF" d="M165.564,323.467"/>
</g>
<path fill="#FF00FF" d="M298.214,166c0,82-66.646,148.857-148.856,148.857C67.146,314.857,0.5,248,0.5,166H298.214z"/>
<path fill="#00FF00" d="M149.357,0.254c82.211,0,148.856,66.646,148.856,148.857s-66.646,148.857-148.856,148.857
	C67.146,297.969,0.5,231.323,0.5,149.111S67.146,0.254,149.357,0.254"/>
<path fill="#FF00FF" d="M165.646,0.254c82.211,0,148.856,66.646,148.856,148.857s-66.646,148.857-148.856,148.857
	c-82.213,0-148.857-66.646-148.857-148.857S83.434,0.254,165.646,0.254"/>
<circle fill="#00FF00" cx="165.646" cy="165.4" r="148.857"/>
<path fill="#FF00FF" d="M298.214,165.976c0,82.153-66.646,148.857-148.856,148.857c-41.105,0-78.32-16.676-105.258-43.621"/>
<path fill="#FFFFFF" d="M158.032,8.753c82.211,0,148.856,66.646,148.856,148.857c0,82.211-66.646,148.856-148.856,148.856
	c-82.213,0-148.857-66.646-148.857-148.856C9.175,75.398,75.819,8.753,158.032,8.753"/>
<g id="Star_-_Blue">
</g>
<g>
	<path d="M150,97c0-6.627-5.373-12-12-12h-36c-6.627,0-12,5.373-12,12v122c0,6.627,5.373,12,12,12h36c6.627,0,12-5.373,12-12V97z"/>
	<path d="M227,97c0-6.627-5.373-12-12-12h-36c-6.627,0-12,5.373-12,12v122c0,6.627,5.373,12,12,12h36c6.627,0,12-5.373,12-12V97z"/>
</g>
</svg>
