<?xml version="1.0" encoding="utf-8"?>
<!-- Generator: Adobe Illustrator 15.0.0, SVG Export Plug-In . SVG Version: 6.00 Build 0)  -->
<!DOCTYPE svg PUBLIC "-//W3C//DTD SVG 1.1//EN" "http://www.w3.org/Graphics/SVG/1.1/DTD/svg11.dtd">
<svg version="1.1" id="Layer_1" xmlns="http://www.w3.org/2000/svg" xmlns:xlink="http://www.w3.org/1999/xlink" x="0px" y="0px"
	 width="313.503px" height="314.969px" viewBox="0 0 313.503 314.969" enable-background="new 0 0 313.503 314.969"
	 xml:space="preserve">
<g>
	<path fill="#FF00FF" d="M155.357,331.857"/>
	<path fill="#00FF00" d="M155.357,17.254"/>
	<path fill="#00FF00" d="M155.357,314.969"/>
	<path fill="#FF00FF" d="M171.646,17.254"/>
	<path fill="#FF00FF" d="M171.646,314.969"/>
	<path fill="#00FF00" d="M171.646,33.543"/>
	<path fill="#00FF00" d="M171.646,331.257"/>
	<path fill="#FF00FF" d="M155.357,331.833"/>
	<path fill="#FFFFFF" d="M164.564,25.753"/>
	<path fill="#FFFFFF" d="M164.564,323.467"/>
</g>
<path fill="#FF00FF" d="M297.214,166c0,82-66.646,148.857-148.856,148.857C66.146,314.857-0.5,248-0.5,166H297.214z"/>
<path fill="#00FF00" d="M148.357,0.254c82.211,0,148.856,66.646,148.856,148.857s-66.646,148.857-148.856,148.857
	C66.146,297.969-0.5,231.323-0.5,149.111S66.146,0.254,148.357,0.254"/>
<path fill="#FF00FF" d="M164.646,0.254c82.211,0,148.856,66.646,148.856,148.857s-66.646,148.857-148.856,148.857
	c-82.213,0-148.857-66.646-148.857-148.857S82.434,0.254,164.646,0.254"/>
<circle fill="#00FF00" cx="164.646" cy="165.4" r="148.857"/>
<path fill="#FF00FF" d="M297.214,165.976c0,82.153-66.646,148.857-148.856,148.857c-41.105,0-78.32-16.676-105.258-43.621"/>
<path fill="#FFFFFF" d="M157.564,8.753c82.211,0,148.856,66.646,148.856,148.857c0,82.211-66.646,148.856-148.856,148.856
	c-82.213,0-148.857-66.646-148.857-148.856C8.707,75.398,75.352,8.753,157.564,8.753"/>
<g>
	<path d="M231.896,158.763c0,41.904-84.356,71.712-103.005,71.712S95,215.355,95,196.706v-78.186
		c0-18.649,16.18-33.769,33.892-33.769S231.896,118.521,231.896,158.763z"/>
</g>
<g id="Star_-_Blue">
</g>
</svg>
